<?xml version="1.0" standalone="no"?>
<!DOCTYPE svg PUBLIC "-//W3C//DTD SVG 20010904//EN"
 "http://www.w3.org/TR/2001/REC-SVG-20010904/DTD/svg10.dtd">
<svg version="1.0" xmlns="http://www.w3.org/2000/svg"
 width="1072.000000pt" height="1072.000000pt" viewBox="0 0 1072.000000 1072.000000"
 preserveAspectRatio="xMidYMid meet">
<metadata>
Created by potrace 1.14, written by Peter Selinger 2001-2017
</metadata>
<g transform="translate(0.000000,1072.000000) scale(0.100000,-0.100000)"
fill="#000000" stroke="none">
<path d="M177 10713 c-2 -5 -21 -64 -41 -133 -21 -69 -42 -135 -47 -148 -5
-13 -9 -29 -9 -37 0 -7 -5 -26 -11 -42 l-11 -28 -29 35 c-25 29 -29 31 -29 14
0 -12 11 -38 25 -58 l25 -37 -25 -91 c-17 -58 -25 -109 -23 -142 l3 -51 22 67
c21 61 92 296 144 473 11 39 29 96 39 128 l19 57 -24 0 c-13 0 -26 -3 -28 -7z"/>
<path d="M2305 10710 c-8 -14 -32 -140 -44 -240 -6 -47 -15 -179 -21 -295 -12
-272 -27 -502 -45 -695 -8 -85 -21 -247 -29 -360 -8 -113 -21 -284 -28 -380
-18 -246 -16 -712 5 -865 8 -66 18 -154 22 -195 3 -41 15 -156 26 -255 65
-592 115 -775 379 -1393 142 -334 271 -543 534 -867 74 -90 102 -131 91 -133
-23 -5 -334 103 -475 165 -197 87 -221 101 -234 135 -9 26 -15 29 -39 24 -16
-3 -38 -1 -50 6 -64 33 -239 154 -403 278 -61 46 -179 155 -268 248 -53 54
-79 64 -90 35 -5 -12 21 -44 101 -122 114 -112 99 -111 -36 2 -45 37 -86 67
-92 67 -6 0 -9 -12 -7 -27 2 -19 21 -42 64 -77 65 -54 61 -48 219 -350 79
-153 146 -268 172 -298 8 -9 13 -21 12 -27 -4 -11 -139 62 -204 110 -22 16
-65 47 -95 68 -111 77 -160 122 -276 252 -222 248 -341 397 -429 543 -17 26
-42 67 -57 90 -14 22 -27 51 -27 63 -1 13 -12 30 -25 38 -24 16 -67 85 -176
285 -79 144 -306 598 -326 654 -26 68 -43 129 -49 169 -4 27 -11 37 -24 37
-25 0 -30 -16 -22 -70 12 -74 64 -195 201 -467 168 -335 248 -483 328 -608 44
-69 45 -71 53 -185 18 -256 54 -425 154 -725 92 -276 96 -301 45 -265 -72 51
-234 262 -531 689 -24 35 -63 91 -87 125 -120 171 -241 414 -312 626 -28 84
-46 152 -121 450 -38 151 -74 279 -79 284 -16 16 -12 -123 6 -203 15 -66 15
-73 0 -90 -10 -11 -16 -35 -16 -67 l0 -49 21 33 c12 17 24 32 28 32 4 0 20
-53 35 -117 16 -65 34 -133 41 -152 9 -28 8 -40 -7 -70 -21 -43 -54 -232 -63
-363 -10 -138 14 -255 57 -282 29 -18 32 2 12 62 -15 46 -19 82 -17 191 2 126
26 316 43 334 7 8 40 -62 40 -84 0 -11 40 -104 98 -229 38 -82 96 -186 150
-269 l36 -53 1 -297 c1 -357 5 -375 93 -461 32 -30 93 -80 137 -109 44 -30
116 -82 160 -115 155 -118 205 -141 286 -134 58 6 57 11 61 -177 l3 -130 -47
1 c-65 0 -110 37 -417 338 -558 547 -609 603 -706 757 l-40 64 -3 -39 c-2 -22
2 -50 9 -63 10 -19 10 -33 1 -69 -7 -24 -12 -63 -12 -87 l1 -42 30 58 c26 51
49 73 49 48 0 -18 106 -138 243 -276 l139 -140 -6 -145 c-8 -184 -22 -273 -95
-575 -47 -198 -94 -408 -140 -630 -53 -258 -106 -435 -177 -584 -33 -69 -44
-106 -44 -140 1 -42 2 -45 15 -27 8 11 35 58 59 105 65 126 94 213 176 531 5
20 25 115 45 212 19 97 59 277 89 400 88 358 123 565 127 748 1 27 5 50 8 50
4 0 33 -26 64 -58 l58 -59 -25 -124 c-46 -230 -62 -350 -96 -729 -16 -173 -38
-343 -55 -420 -8 -36 -26 -119 -41 -185 -47 -216 -130 -491 -217 -725 -59
-155 -77 -199 -111 -270 -21 -41 -50 -106 -67 -144 l-29 -68 0 -571 0 -570 88
-91 c48 -50 134 -147 191 -216 58 -69 143 -169 190 -223 47 -54 110 -126 138
-160 54 -63 161 -218 203 -294 l24 -43 683 0 c376 0 683 3 683 7 0 5 -17 55
-39 113 -91 247 -252 751 -335 1050 -26 91 -63 221 -83 290 -52 181 -160 585
-218 820 -56 226 -82 348 -109 515 -14 88 -33 198 -41 245 -59 347 -91 717
-105 1215 -5 198 -15 427 -21 508 -6 82 -8 151 -5 155 4 3 29 -6 56 -21 28
-15 50 -25 50 -22 0 3 -29 63 -65 133 -35 70 -74 152 -86 182 -52 135 -140
420 -164 537 -23 116 -56 353 -49 361 1 2 27 -34 57 -80 29 -45 79 -118 110
-162 l57 -78 0 -110 c0 -143 19 -446 30 -478 5 -15 9 75 11 230 2 231 3 266 8
293 0 5 13 -6 28 -25 15 -18 50 -56 76 -85 27 -28 61 -66 75 -85 15 -18 60
-68 101 -110 124 -130 489 -377 558 -378 13 0 50 -25 89 -60 58 -53 94 -73 94
-54 0 10 -42 67 -100 134 -94 110 -132 172 -270 435 -35 66 -67 125 -72 132
-25 32 3 28 59 -7 33 -22 112 -67 175 -101 62 -35 139 -80 170 -101 31 -21 61
-38 67 -38 5 0 11 -4 13 -8 2 -5 30 -23 63 -42 33 -18 61 -34 62 -35 7 -4 64
-479 98 -825 37 -371 54 -520 65 -575 5 -27 14 -86 20 -130 24 -165 119 -603
200 -920 29 -110 65 -258 80 -330 16 -71 36 -155 44 -185 9 -30 22 -82 30
-115 86 -356 245 -729 510 -1193 48 -85 86 -156 83 -158 -9 -9 -380 380 -471
493 -307 384 -680 1098 -935 1788 -27 72 -58 164 -70 205 -12 41 -28 95 -36
120 -7 25 -21 75 -29 112 -21 90 -42 138 -60 138 -26 0 -28 -19 -8 -83 11 -34
32 -107 47 -162 80 -299 251 -732 444 -1126 55 -114 70 -152 65 -175 -6 -32
25 -355 56 -570 16 -116 46 -298 90 -555 15 -82 130 -539 186 -734 30 -104 61
-214 70 -242 9 -33 20 -53 29 -53 20 0 19 18 -4 98 -58 205 -202 794 -235 964
-25 124 -82 471 -105 633 -16 115 -42 388 -37 393 3 2 14 -16 26 -40 79 -156
261 -460 363 -602 139 -196 386 -461 595 -640 71 -60 104 -98 148 -167 52 -83
74 -106 74 -76 -1 6 -7 23 -15 37 -18 31 -19 54 -2 44 6 -4 0 6 -15 22 -14 16
-59 88 -99 159 -39 72 -111 200 -159 285 -174 309 -302 588 -379 824 -45 139
-94 330 -241 931 -71 291 -91 378 -87 382 2 2 53 -30 113 -70 179 -120 551
-347 568 -347 3 0 29 -14 58 -31 57 -34 321 -168 428 -217 36 -16 182 -87 325
-157 345 -168 604 -285 632 -285 7 0 14 -4 18 -9 3 -5 -64 -115 -148 -243
-239 -364 -274 -426 -352 -628 -104 -267 -124 -648 -42 -806 45 -88 68 -54 31
49 -44 126 -43 418 3 577 26 93 55 170 63 170 5 0 13 -14 19 -31 20 -58 148
-215 434 -534 123 -138 172 -211 232 -349 l48 -110 -26 -22 c-14 -12 -45 -25
-69 -29 -83 -13 -143 -48 -182 -106 -42 -63 -43 -69 -12 -69 16 0 32 13 51 41
16 22 41 47 56 55 48 24 161 46 208 40 45 -6 209 -79 260 -115 27 -20 43 -21
225 -21 125 0 196 4 196 10 0 6 -39 50 -87 98 -113 113 -224 171 -425 222 -27
7 -48 17 -48 23 0 39 365 521 480 634 100 99 260 182 351 183 101 0 317 -88
459 -188 175 -123 456 -389 627 -592 73 -87 76 -94 74 -145 l-1 -30 -47 49
c-26 27 -66 57 -88 67 -89 41 -319 11 -515 -66 -48 -19 -92 -35 -99 -35 -6 0
-37 20 -69 45 -31 25 -63 45 -70 45 -9 0 -10 11 -6 40 6 35 4 40 -12 40 -13
-1 -37 -29 -72 -84 -72 -114 -159 -206 -249 -263 l-76 -48 46 -3 c57 -4 304
76 466 150 226 104 395 151 541 152 62 1 82 -3 112 -22 55 -34 126 -131 188
-254 9 -19 21 -28 37 -28 13 0 23 3 23 8 0 4 -23 49 -50 101 -28 51 -50 95
-50 96 0 1 12 0 28 -3 26 -4 49 -28 142 -154 l35 -48 247 0 246 0 -14 63 c-67
291 -129 443 -235 577 -22 28 -39 55 -37 59 9 25 114 170 123 171 28 1 169
-225 246 -396 23 -51 26 -66 19 -105 -15 -76 -40 -241 -46 -306 -5 -43 -3 -63
4 -63 26 0 69 206 108 525 13 106 18 245 22 570 l4 430 45 105 c24 58 51 119
58 135 30 69 187 490 229 615 68 203 116 407 141 597 15 116 10 163 -18 163
-10 0 -16 -24 -20 -94 -14 -205 -116 -590 -241 -908 -14 -38 -37 -97 -51 -133
-14 -36 -36 -94 -50 -129 -14 -36 -25 -67 -25 -70 0 -15 -162 -370 -230 -502
-99 -195 -178 -323 -315 -514 -159 -221 -328 -460 -349 -493 -10 -16 -19 -27
-21 -25 -2 2 11 53 31 113 19 61 48 162 65 225 16 63 36 138 44 165 82 282
174 636 190 730 3 22 26 130 50 240 61 277 113 565 125 687 6 57 14 126 19
153 5 28 15 100 21 160 6 61 16 133 21 160 5 28 15 104 24 170 8 66 24 183 36
260 11 77 26 181 33 231 11 79 18 100 58 165 46 73 111 218 142 314 60 190
166 885 166 1096 l0 56 113 28 c61 15 126 33 142 40 215 89 221 91 229 70 18
-49 66 -392 75 -540 27 -442 26 -622 -10 -1360 -6 -115 -14 -383 -19 -595 -11
-451 -34 -783 -94 -1350 -8 -74 -17 -166 -21 -205 -36 -406 -129 -966 -195
-1175 -35 -111 -35 -110 -12 -110 42 0 114 260 167 605 8 55 24 156 34 225 26
168 82 689 101 940 6 80 13 151 16 159 16 47 45 657 65 1366 7 220 15 425 19
455 l6 55 13 -30 c7 -16 31 -86 53 -155 46 -144 343 -1050 359 -1095 124 -357
181 -506 348 -910 133 -323 147 -357 166 -400 8 -16 26 -59 40 -95 144 -352
464 -1032 519 -1103 9 -11 24 -17 39 -15 l25 3 -55 100 -55 99 -23 181 c-13
99 -26 235 -29 302 -4 67 -11 146 -16 175 -6 29 -17 116 -25 193 -8 77 -21
192 -29 255 -22 164 -56 812 -42 799 14 -13 163 -451 246 -719 23 -74 45 -146
50 -160 4 -14 20 -68 35 -120 15 -52 33 -113 40 -135 13 -40 13 -39 14 46 1
49 -5 104 -13 130 -29 88 -85 268 -136 434 -83 269 -274 782 -386 1036 -114
259 -326 801 -424 1084 -17 50 -62 169 -100 265 -130 332 -190 488 -225 586
-19 55 -39 108 -45 119 -45 95 -227 675 -237 755 l-5 45 108 65 c337 200 615
434 786 662 24 32 46 57 49 58 8 0 -13 -115 -47 -250 -26 -103 -96 -299 -148
-412 -14 -31 -26 -61 -26 -66 0 -5 -18 -33 -41 -61 -32 -40 -39 -54 -30 -65 7
-8 9 -26 5 -43 -9 -37 9 -21 46 41 27 48 266 297 275 288 3 -3 5 -18 5 -34 0
-27 38 -223 95 -493 14 -66 32 -156 40 -200 23 -127 81 -385 130 -570 49 -189
115 -484 171 -765 33 -170 124 -515 145 -550 5 -9 9 12 9 59 0 54 -8 100 -29
170 -37 120 -73 275 -106 456 -27 147 -125 572 -174 760 -16 61 -41 169 -56
240 -15 72 -47 225 -71 340 -25 116 -54 260 -65 320 -11 61 -24 124 -28 140
-5 17 -14 64 -21 106 l-12 75 89 120 c173 230 294 443 393 689 28 71 58 142
66 158 10 18 14 50 12 88 l-3 61 -104 -253 c-103 -249 -189 -411 -329 -615
-100 -147 -307 -393 -320 -380 -2 3 2 20 11 38 76 163 154 441 173 618 8 75
16 93 94 209 31 47 86 133 120 191 69 114 310 600 310 625 0 8 -9 15 -19 15
-20 0 -39 -35 -176 -325 -154 -325 -406 -699 -625 -928 -184 -194 -490 -414
-775 -560 -242 -123 -285 -142 -490 -215 -60 -22 -118 -43 -127 -47 -12 -5
-18 -3 -18 6 0 8 28 30 62 49 34 19 80 50 102 69 23 18 113 81 200 138 199
130 424 299 592 444 71 61 193 166 272 232 136 115 155 138 132 152 -16 10
-37 -7 -277 -212 -467 -402 -787 -630 -1018 -725 -134 -54 -331 -98 -447 -98
-78 0 -103 -13 -50 -27 52 -14 224 -6 310 15 60 14 82 16 82 7 0 -27 -23 -75
-36 -75 -8 0 -14 -4 -14 -10 0 -5 6 -7 14 -4 7 3 16 -1 19 -9 6 -16 -17 -324
-33 -437 -23 -163 -62 -398 -75 -450 -7 -30 -16 -73 -20 -95 -3 -22 -15 -71
-26 -110 -109 -378 -421 -757 -904 -1100 -60 -43 -135 -97 -165 -120 -150
-114 -416 -286 -540 -350 -41 -22 -111 -61 -155 -88 -44 -27 -129 -76 -190
-108 -60 -32 -150 -90 -200 -128 -212 -165 -327 -220 -475 -228 -74 -4 -98 -1
-185 25 -221 66 -500 179 -855 347 -765 360 -1132 550 -1430 740 -36 22 -118
74 -182 115 -160 102 -188 126 -198 175 -4 22 -22 110 -39 195 -48 240 -94
600 -137 1060 -14 153 -32 308 -64 540 -5 36 -7 67 -4 69 2 3 21 -5 42 -16 99
-56 390 -171 556 -220 115 -33 205 -29 160 7 -8 7 -13 19 -10 26 4 10 -49 92
-73 114 -12 10 -168 207 -207 260 -152 209 -225 337 -349 615 -185 413 -298
765 -345 1070 -36 234 -36 232 6 300 20 33 87 161 148 285 62 124 132 257 155
295 61 99 199 292 275 386 8 9 44 22 82 28 65 12 493 113 614 146 103 27 371
82 520 106 45 7 216 12 425 14 374 3 421 7 575 59 41 13 78 21 83 17 7 -7 -2
-66 -57 -361 -48 -255 -111 -505 -136 -533 -4 -4 -20 2 -36 15 -16 13 -65 46
-109 73 -88 54 -195 132 -195 143 0 4 53 4 118 0 123 -7 160 1 96 22 -27 9
-102 11 -283 7 -235 -5 -467 -26 -686 -61 -153 -25 -325 -71 -325 -88 0 -12 1
-11 166 26 217 49 434 77 729 92 l130 6 45 -37 c75 -63 194 -141 303 -197 20
-11 37 -23 37 -26 0 -4 -12 -41 -26 -84 -15 -42 -24 -84 -20 -93 5 -14 12 -12
43 14 21 17 42 31 47 31 17 0 146 102 194 154 45 50 257 340 282 386 21 39 28
10 15 -59 -21 -107 -138 -491 -219 -719 -15 -40 -24 -77 -21 -83 9 -14 69 -11
136 6 77 20 323 117 424 167 134 67 367 220 474 311 18 15 35 26 38 23 3 -2
-39 -64 -93 -138 -81 -111 -134 -200 -134 -225 0 -3 21 -3 48 -1 52 6 358 149
519 244 149 88 332 245 451 389 23 27 43 47 46 45 4 -5 -61 -218 -96 -310 -12
-30 -39 -88 -61 -128 -21 -40 -37 -76 -34 -79 11 -10 47 9 106 57 59 47 64 48
145 55 47 4 89 6 95 4 6 -2 -44 -39 -112 -81 -141 -89 -185 -123 -174 -134 4
-4 53 24 110 62 56 39 134 89 173 112 69 41 72 42 160 42 101 0 252 -15 336
-32 52 -11 81 -7 66 8 -12 11 -125 33 -233 45 -68 7 -177 9 -287 6 l-178 -6
117 129 c122 135 224 267 300 388 26 39 52 72 60 72 7 0 30 -6 50 -14 48 -19
189 -46 235 -46 19 0 79 7 133 15 102 15 125 11 125 -22 0 -18 54 -253 75
-328 73 -257 123 -409 173 -520 65 -144 222 -447 259 -499 l36 -50 -7 -214
c-12 -376 -24 -443 -107 -589 -95 -168 -216 -329 -459 -608 -108 -125 -150
-179 -150 -195 0 -37 115 77 303 303 227 272 314 401 414 617 63 134 68 144
163 315 287 511 443 1010 569 1810 57 367 66 485 65 925 0 462 0 466 -85 925
-88 479 -93 500 -117 503 -28 4 -28 -8 -1 -134 27 -126 23 -106 64 -329 20
-104 38 -197 40 -205 3 -8 17 -100 32 -205 25 -179 27 -211 27 -560 0 -388 -9
-520 -65 -890 -71 -480 -233 -1109 -349 -1360 -5 -11 -21 -49 -36 -85 -50
-123 -245 -493 -266 -506 -6 -4 -8 52 -4 147 23 598 29 1056 17 1359 -5 151
-8 277 -5 279 2 2 31 -10 63 -27 33 -17 63 -28 65 -23 8 12 -10 25 -75 55 -31
14 -59 33 -63 42 -3 8 -6 43 -6 77 0 71 -13 227 -35 407 -38 313 -66 549 -85
720 -39 345 -89 659 -121 759 -6 18 -17 59 -24 90 -7 31 -29 115 -48 186 -19
72 -37 147 -41 168 -5 28 -12 37 -26 37 -29 0 -26 -45 10 -181 121 -457 154
-627 195 -989 8 -74 20 -166 25 -205 11 -76 43 -347 66 -545 24 -215 48 -510
41 -516 -3 -3 -66 8 -139 25 -73 17 -180 38 -238 46 -58 9 -108 19 -112 23 -3
4 -32 138 -63 297 -60 313 -89 450 -141 674 -18 79 -31 148 -28 152 9 15 45
570 47 719 1 93 -5 193 -16 280 -10 74 -21 154 -23 178 -4 33 -9 42 -25 42
-25 0 -25 -33 2 -248 22 -176 22 -220 -1 -622 -23 -396 -74 -683 -176 -990
-45 -135 -149 -359 -171 -367 -6 -2 -31 4 -55 15 -23 11 -64 29 -90 40 -27 12
-48 27 -48 34 0 7 13 37 29 65 33 60 216 458 225 488 3 11 1 26 -3 34 -14 22
-35 1 -61 -62 -75 -177 -208 -459 -232 -491 -14 -17 -20 -15 -121 44 -59 34
-110 66 -113 71 -6 11 -44 12 -44 1 0 -4 35 -31 78 -59 42 -29 96 -69 120 -90
l43 -38 -61 -90 c-161 -235 -413 -502 -579 -613 -73 -49 -557 -302 -578 -302
-2 0 22 33 55 73 84 103 202 283 202 307 0 13 26 45 67 83 174 161 406 427
401 461 -5 36 -24 27 -74 -36 -242 -309 -540 -573 -879 -779 -146 -88 -390
-194 -560 -243 -59 -18 -75 -16 -58 6 15 19 77 189 113 309 17 57 42 142 57
189 52 172 64 227 70 328 4 67 11 106 20 113 7 6 13 17 13 23 0 6 16 34 35 63
86 128 205 388 205 448 0 21 -4 26 -22 23 -16 -2 -24 -13 -31 -38 -23 -93 -87
-231 -179 -385 -168 -283 -338 -524 -443 -630 -75 -75 -165 -152 -165 -141 0
2 14 42 31 88 75 201 119 391 174 743 15 94 28 180 31 191 2 13 14 24 30 28
114 29 413 216 345 216 -5 0 -53 -21 -107 -46 -99 -46 -226 -94 -250 -94 -8 0
-11 9 -8 23 11 55 26 724 20 932 -7 286 -40 553 -103 848 -15 69 -19 77 -40
77 -28 0 -28 4 1 -133 92 -430 116 -802 91 -1397 -9 -195 -17 -360 -20 -367
-2 -6 -39 -19 -82 -28 -43 -9 -91 -21 -108 -26 -29 -8 -122 -23 -347 -54 -59
-8 -214 -22 -343 -30 -279 -18 -445 -47 -835 -145 -291 -74 -525 -130 -543
-130 -12 0 19 45 102 148 66 81 128 156 138 167 10 11 52 58 93 105 41 47 109
121 151 165 188 198 437 495 572 680 363 499 431 603 553 846 103 206 100 199
64 199 -17 0 -30 -5 -30 -10 0 -11 -139 -294 -172 -350 -47 -79 -146 -230
-217 -330 -18 -25 -44 -63 -59 -85 -152 -224 -498 -652 -710 -878 -236 -252
-370 -409 -552 -646 -26 -34 -43 -40 -179 -61 -87 -14 -111 -21 -111 -31 0
-14 47 -10 140 11 47 11 89 20 94 20 11 0 -16 -42 -68 -105 -103 -125 -216
-314 -346 -576 -59 -119 -110 -235 -114 -258 -3 -22 -10 -41 -14 -41 -5 0 -14
51 -21 113 -43 388 -53 482 -60 572 -14 167 6 649 49 1180 25 316 27 329 49
354 10 12 21 42 25 69 8 60 70 344 96 442 12 41 34 127 51 190 16 63 38 142
49 175 17 55 50 168 65 223 5 18 2 22 -17 22 -21 0 -27 -11 -57 -106 -51 -166
-140 -496 -172 -639 -17 -71 -32 -132 -35 -134 -6 -7 3 233 17 429 8 113 33
305 56 423 4 22 2 27 -15 27 -12 0 -24 -4 -27 -10z m5699 -1441 c8 -30 44
-202 80 -384 83 -416 86 -434 96 -467 12 -37 1 -42 -73 -33 -95 10 -390 76
-405 90 -2 2 21 50 52 107 78 146 151 379 212 671 8 43 18 77 20 74 2 -2 11
-28 18 -58z m-2599 -407 c-15 -13 -126 -60 -160 -68 -55 -12 -14 14 70 44 87
32 104 37 90 24z m-237 -84 c-10 -29 -274 -89 -413 -94 -111 -5 -105 9 10 21
111 11 369 65 383 80 10 10 24 5 20 -7z m2364 -273 c28 -14 57 -25 64 -25 6 0
17 -6 23 -14 9 -10 8 -15 -2 -19 -13 -5 -157 67 -157 78 0 10 22 4 72 -20z
m-58 -20 c30 -19 59 -35 63 -35 4 0 20 -10 35 -23 l28 -22 -93 -131 c-50 -72
-117 -162 -148 -200 -77 -95 -272 -294 -264 -269 4 11 26 79 50 150 24 72 57
175 73 230 24 83 39 114 84 175 30 41 67 94 82 118 14 23 28 42 31 42 3 0 29
-16 59 -35z m418 -88 c53 -13 101 -27 105 -31 24 -25 -275 21 -312 48 -35 25
-8 35 53 20 31 -8 101 -25 154 -37z m662 -109 c87 -17 164 -37 171 -44 8 -8
14 -71 18 -186 9 -222 8 -970 -1 -1023 -7 -40 -8 -38 -129 210 -68 137 -141
298 -163 356 -89 238 -221 726 -199 739 10 7 34 3 303 -52z m-7927 -2628 c36
-52 87 -124 111 -160 169 -245 302 -405 406 -486 38 -30 39 -32 49 -122 6 -51
8 -94 5 -97 -10 -10 -146 32 -189 59 -24 14 -96 64 -159 111 -63 46 -148 108
-189 137 -109 78 -120 99 -137 265 -15 151 -18 276 -7 373 l6 62 18 -23 c11
-13 49 -67 86 -119z m8483 -237 c1 -56 98 -387 187 -633 79 -218 196 -530 288
-765 40 -104 124 -325 185 -490 153 -413 288 -753 395 -990 81 -180 97 -227
105 -307 12 -103 28 -357 40 -627 8 -192 20 -311 55 -571 16 -123 40 -352 55
-531 5 -70 13 -134 16 -143 3 -9 2 -16 -3 -16 -19 0 -148 279 -323 695 -51
121 -107 254 -125 295 -18 41 -45 104 -60 140 -15 36 -37 90 -50 120 -25 62
-98 241 -175 435 -75 187 -174 469 -275 780 -139 431 -305 889 -361 997 -11
22 -15 117 -18 480 -4 465 -15 679 -42 828 -20 109 -45 231 -51 247 -5 11 118
81 145 83 7 0 12 -12 12 -27z m-640 -118 c-14 -16 -40 -20 -40 -6 0 10 17 19
39 20 11 1 11 -2 1 -14z m-7401 -869 c29 -15 74 -30 101 -33 l48 -5 6 -232
c11 -357 32 -628 71 -900 13 -93 22 -172 20 -176 -2 -3 -41 -7 -87 -8 -159 -5
-234 -31 -325 -115 -51 -47 -189 -205 -256 -293 -27 -36 -59 -66 -75 -72 -16
-5 -94 -55 -173 -110 -137 -94 -246 -158 -255 -149 -3 2 17 55 44 118 124 291
249 699 322 1053 21 103 55 379 65 521 9 136 25 276 46 415 22 138 57 319 65
332 3 5 78 -65 168 -155 115 -117 177 -172 215 -191z m6940 -898 c-4 -18 -13
-69 -18 -113 -6 -44 -34 -273 -64 -510 -30 -236 -58 -457 -62 -490 -9 -81 -57
-338 -110 -580 -24 -110 -55 -258 -70 -330 -14 -71 -31 -147 -36 -168 -10 -38
-11 -38 -34 -23 -58 38 -156 85 -219 105 -76 24 -248 50 -336 51 -69 0 -218
24 -290 45 -52 15 -90 30 -285 105 -112 43 -108 38 -86 95 31 83 65 300 87
558 l7 79 -24 -4 c-27 -3 -27 -4 -49 -223 -6 -66 -20 -178 -31 -250 -11 -71
-22 -145 -25 -162 -3 -18 -10 -33 -17 -33 -22 0 -163 87 -254 157 -173 132
-192 148 -192 158 0 6 27 29 62 52 34 24 100 73 147 109 47 36 123 86 170 110
47 25 126 69 175 99 50 30 135 78 189 107 143 74 484 304 776 522 216 162 441
372 540 505 25 33 48 60 52 61 3 0 2 -15 -3 -32z m-6542 -1240 c-3 -8 -6 -5
-6 6 -1 11 2 17 5 13 3 -3 4 -12 1 -19z m5862 -904 c97 -24 214 -76 266 -118
l30 -24 -29 -115 c-16 -64 -32 -121 -36 -127 -5 -7 -84 53 -223 168 -119 99
-237 195 -262 213 -25 18 -45 34 -45 37 0 12 215 -13 299 -34z m881 -133 c0
-77 -3 -142 -7 -144 -5 -3 -37 2 -73 11 l-66 15 66 128 c36 71 68 129 73 129
4 0 7 -63 7 -139z m-82 -177 c41 -20 76 -43 79 -51 7 -18 -14 -422 -25 -478
l-8 -40 -53 105 c-73 144 -137 238 -177 258 l-33 17 67 112 c37 62 69 113 72
113 3 0 38 -16 78 -36z"/>
<path d="M10650 10716 c0 -2 15 -42 33 -88 l32 -83 3 59 c4 75 -12 116 -44
116 -13 0 -24 -2 -24 -4z"/>
<path d="M4064 7879 c-46 -70 -46 -70 -87 -67 l-42 3 3 63 c2 34 1 62 -2 62
-3 0 -21 -24 -39 -52 -44 -70 -52 -75 -123 -83 l-60 -7 -10 63 c-10 69 -28 87
-39 38 -14 -63 -54 -139 -79 -149 -51 -19 -58 -17 -70 25 -15 52 -30 47 -36
-12 -5 -45 -8 -49 -49 -70 -24 -12 -48 -20 -52 -17 -5 2 -11 20 -15 40 -9 48
-28 37 -35 -20 -3 -26 -10 -50 -15 -54 -6 -4 -66 -43 -133 -87 -67 -44 -153
-100 -191 -125 -38 -25 -97 -69 -132 -97 -81 -68 -261 -260 -249 -267 5 -3 53
40 107 97 119 125 153 151 102 80 -87 -121 -175 -337 -203 -497 -25 -148 -14
-468 18 -501 10 -10 2 121 -10 160 -5 17 -3 18 9 8 8 -7 21 -32 28 -55 31
-105 121 -248 207 -329 44 -42 140 -109 156 -109 19 0 2 41 -44 107 -28 40
-66 107 -85 149 -31 67 -37 91 -49 226 -29 301 -22 399 39 555 74 189 271 404
500 546 33 20 61 35 63 33 2 -2 -3 -21 -12 -42 -70 -165 -94 -273 -102 -459
-4 -102 -1 -176 11 -275 24 -190 21 -181 66 -174 29 5 38 2 43 -10 9 -23 -8
-63 -33 -76 -29 -16 -25 -40 24 -138 74 -146 226 -337 309 -385 66 -39 204
-77 278 -77 35 0 96 9 134 19 273 71 357 219 446 780 24 154 37 391 21 391 -6
0 -15 -6 -19 -14 -22 -37 -106 -48 -171 -20 -114 47 -165 180 -108 279 37 63
122 115 187 115 39 0 37 13 -11 93 -22 36 -40 69 -40 72 0 20 128 -135 188
-227 71 -110 107 -186 155 -328 24 -69 47 -123 53 -120 5 3 8 10 8 15 -5 30
-15 66 -34 120 -12 33 -26 84 -31 113 -6 29 -19 74 -30 100 -19 43 -119 217
-156 270 -10 14 -11 22 -4 22 36 0 239 -132 326 -212 29 -26 56 -48 59 -48 43
0 -128 167 -230 227 -117 67 -294 188 -280 191 25 6 247 -59 313 -91 13 -6 26
-7 30 -3 40 40 -371 142 -647 160 -52 3 -98 10 -102 14 -4 4 4 31 17 61 27 58
30 71 15 71 -6 0 -31 -32 -56 -71z m160 -625 c27 -10 20 -44 -9 -44 -26 0 -29
7 -19 34 7 18 7 18 28 10z m-514 -184 c0 -25 -18 -36 -26 -16 -8 21 3 49 16
41 5 -3 10 -15 10 -25z m549 -557 c96 -56 154 -143 174 -258 15 -86 4 -125
-49 -184 -103 -114 -312 -169 -479 -126 -70 18 -159 69 -185 105 -79 112 27
381 182 461 24 13 75 30 113 39 61 14 78 14 135 3 35 -8 84 -25 109 -40z"/>
<path d="M7687 7663 c-4 -3 -7 -16 -7 -27 1 -21 1 -21 15 -2 8 11 15 23 15 28
0 10 -14 11 -23 1z"/>
<path d="M7829 7626 l-20 -34 -127 0 c-176 -2 -333 -39 -566 -137 -53 -22 -34
-38 24 -20 76 24 164 44 170 38 3 -2 -13 -19 -35 -36 -113 -90 -166 -141 -227
-217 -62 -77 -124 -189 -116 -210 2 -5 31 23 66 61 34 38 62 66 62 61 0 -6
-16 -43 -35 -83 -42 -90 -89 -249 -77 -261 5 -5 15 5 23 24 7 18 27 51 44 74
16 23 36 50 43 60 11 17 12 15 7 -16 -34 -206 -44 -382 -29 -492 5 -35 12 -47
35 -60 36 -21 37 -42 4 -64 -29 -19 -30 -15 23 -159 50 -138 135 -264 211
-313 54 -36 59 -37 164 -40 146 -5 190 11 277 98 159 159 259 479 277 884 l6
138 -32 -7 c-24 -5 -41 -1 -75 19 -80 46 -106 125 -69 203 19 42 90 96 115 90
10 -3 18 -1 18 4 0 17 -54 145 -73 172 -10 16 -17 31 -13 34 11 11 119 -63
161 -110 116 -132 256 -444 275 -615 9 -86 -1 -215 -30 -382 -38 -217 -60
-301 -121 -477 -23 -66 -11 -69 58 -15 86 68 203 222 228 301 10 32 22 25 29
-18 7 -46 32 -73 42 -46 12 31 -5 326 -31 540 -38 311 -39 329 -29 322 6 -3
23 -31 38 -61 28 -55 54 -77 41 -35 -13 40 -198 345 -244 402 -9 11 -29 35
-45 53 l-28 34 23 19 c30 24 20 36 -15 20 -25 -12 -30 -9 -79 40 -29 29 -78
67 -110 84 -62 34 -61 33 -41 105 10 35 -14 26 -33 -13 -19 -40 -21 -40 -94
-19 -88 25 -85 22 -56 52 29 30 33 42 17 42 -6 0 -20 -15 -31 -34z m-171 -579
c5 -27 -17 -50 -34 -36 -15 12 -19 41 -7 53 12 12 38 1 41 -17z m-478 -182 c0
-28 -21 -33 -41 -9 -10 13 -10 17 2 25 25 15 39 10 39 -16z m387 -511 c85 -49
133 -160 133 -303 0 -70 -5 -96 -24 -138 -32 -67 -62 -83 -176 -90 -79 -5 -93
-3 -136 18 -68 32 -136 104 -177 185 -60 121 -62 132 -27 197 33 60 65 92 137
133 38 23 48 25 70 15 21 -10 30 -9 47 4 29 21 98 12 153 -21z"/>
<path d="M8159 7500 c-14 -11 -18 -19 -11 -20 19 0 52 19 52 30 0 16 -16 12
-41 -10z"/>
<path d="M3700 5737 c0 -19 21 -24 182 -42 214 -24 418 -17 418 14 0 3 -64 5
-143 3 -128 -4 -325 12 -429 34 -21 5 -28 2 -28 -9z"/>
<path d="M7270 5642 c0 -16 23 -29 85 -47 76 -21 239 -32 249 -16 5 7 -5 11
-31 11 -38 0 -252 41 -285 55 -10 4 -18 3 -18 -3z"/>
<path d="M6736 5381 c-7 -11 28 -112 52 -151 33 -53 84 -110 99 -110 10 0 4
14 -21 48 -48 62 -76 117 -91 171 -11 44 -27 61 -39 42z"/>
<path d="M5410 3579 l-25 -20 30 14 c17 8 37 17 45 20 11 4 9 6 -5 6 -11 0
-31 -9 -45 -20z"/>
<path d="M8967 1863 c-7 -11 13 -84 67 -238 25 -71 79 -263 120 -426 60 -239
204 -740 281 -976 l14 -43 -72 0 c-40 0 -77 4 -83 8 -6 4 -64 83 -130 177
-128 182 -251 318 -298 329 -15 4 -31 4 -34 1 -3 -3 33 -44 80 -93 46 -48 104
-114 128 -147 83 -113 190 -268 190 -275 0 -4 -33 -23 -72 -43 -73 -37 -188
-116 -188 -129 0 -5 14 -8 31 -8 19 0 47 13 76 35 92 71 147 90 265 93 97 3
113 1 162 -21 30 -14 81 -44 115 -66 45 -31 69 -41 98 -40 l38 0 -32 27 c-18
15 -74 52 -125 83 l-93 56 -26 84 c-15 46 -43 140 -64 209 -20 69 -45 152 -55
185 -76 255 -128 445 -160 585 -49 215 -132 469 -185 567 -42 78 -41 77 -48
66z"/>
<path d="M0 349 c0 -22 12 -46 39 -78 62 -75 173 -224 184 -248 7 -16 19 -23
39 -23 15 0 28 2 28 5 0 29 -262 375 -284 375 -3 0 -6 -14 -6 -31z"/>
<path d="M5047 20 c-66 -12 -53 -20 33 -20 46 0 81 3 77 6 -12 12 -73 20 -110
14z"/>
</g>
</svg>
